<svg id="Layer_1" data-name="Layer 1" xmlns="https://www.w3.org/2000/svg" viewBox="0 0 292.82 153.4"><defs><style>.cls-1{fill:#165c36;}</style></defs><path class="cls-1" d="M155.46,76.83a8,8,0,1,1-8-8,8,8,0,0,1,8,8m12.28-57.1a8,8,0,1,0,7.95,8,8,8,0,0,0-7.95-7.95M155.1,21.18a20.6,20.6,0,1,0,0,41.19m5.78,21a20.6,20.6,0,1,0,0-41.19" transform="translate(-9.16 -19.73)"/><path class="cls-1" d="M9.16,169.23a4.15,4.15,0,0,1,.08-.72,11.5,11.5,0,0,1,.33-1.25,2.31,2.31,0,0,1,2.24-1.87,2.75,2.75,0,0,1,.59.08,5.56,5.56,0,0,1,.65.18c.87.31,1.8.6,2.81.86a12.72,12.72,0,0,0,3.21.39,6.44,6.44,0,0,0,3.25-.73,2.58,2.58,0,0,0,1.27-2.44,3.16,3.16,0,0,0-.8-2.31A7.22,7.22,0,0,0,20.37,160l-3.58-1.4a13.69,13.69,0,0,1-5.5-3.68,9.27,9.27,0,0,1-2-6.29,10.53,10.53,0,0,1,.86-4.38,8.94,8.94,0,0,1,2.36-3.17A10.61,10.61,0,0,1,16,139.13a13.73,13.73,0,0,1,4.36-.68,34,34,0,0,1,3.95.23,15.2,15.2,0,0,1,3.53.86,2.45,2.45,0,0,1,1.92,2.39c0,.21,0,.47-.05.78a5.49,5.49,0,0,1-.32,1.19,3.92,3.92,0,0,1-.93,1.51,2,2,0,0,1-1.4.46,5,5,0,0,1-1.3-.18l-1.43-.41a15.43,15.43,0,0,0-1.63-.42,9.64,9.64,0,0,0-1.92-.18,4.65,4.65,0,0,0-2.81.73,2.77,2.77,0,0,0-1,2.38,3,3,0,0,0,.85,2.34,9.35,9.35,0,0,0,2.63,1.51l4.41,1.81a13,13,0,0,1,5,3.38,8.29,8.29,0,0,1,1.82,5.65,11.42,11.42,0,0,1-.88,4.63,9.08,9.08,0,0,1-2.52,3.32,11,11,0,0,1-3.92,2,17.91,17.91,0,0,1-5.09.68,23.32,23.32,0,0,1-4.38-.39,17.08,17.08,0,0,1-3.72-1.12,4.36,4.36,0,0,1-1.5-1,2,2,0,0,1-.52-1.43" transform="translate(-9.16 -19.73)"/><path class="cls-1" d="M36.67,170.58a2.79,2.79,0,0,1,.11-.7c.06-.26.13-.53.2-.8l8.78-27.46a4.26,4.26,0,0,1,1.29-2.05,3.84,3.84,0,0,1,2.55-.76h3.06a3.94,3.94,0,0,1,2.57.76,4.23,4.23,0,0,1,1.32,2.05L65.22,169a4.6,4.6,0,0,1,.31,1.51A2.23,2.23,0,0,1,65,172a2.1,2.1,0,0,1-1.66.65H60.71a2.69,2.69,0,0,1-2-.7,5.12,5.12,0,0,1-1.09-2.05l-1.14-3.74a.72.72,0,0,0-.78-.57H46a.72.72,0,0,0-.78.57L44,170.06A4.81,4.81,0,0,1,43,172a2.46,2.46,0,0,1-1.86.65H38.8a1.94,1.94,0,0,1-2.13-2.08m17.24-11.11c.31,0,.46-.13.46-.41a2.64,2.64,0,0,0,0-.36,4.61,4.61,0,0,0-.21-.73l-3-10.12c-.1-.28-.19-.42-.26-.42s-.15.14-.26.42l-3,10.12a5.65,5.65,0,0,0-.2.73,1.84,1.84,0,0,0-.06.36c0,.28.16.41.47.41Z" transform="translate(-9.16 -19.73)"/><path class="cls-1" d="M72.9,142a2.71,2.71,0,0,1,3-3h.83a5.13,5.13,0,0,1,4.52,2.44L92,158.23a3.71,3.71,0,0,0,.26.39.31.31,0,0,0,.25.13c.11,0,.16-.14.16-.42V141.88a2.84,2.84,0,0,1,.81-2.26,3.37,3.37,0,0,1,2.3-.7h.78a3.38,3.38,0,0,1,2.31.7,2.84,2.84,0,0,1,.81,2.26v27.77a2.57,2.57,0,0,1-2.91,2.91H96a5,5,0,0,1-2.7-.63,5.55,5.55,0,0,1-1.71-1.76L80.54,153c-.21-.38-.39-.57-.52-.57s-.11.15-.11.46V169.7a2.87,2.87,0,0,1-.8,2.26,3.41,3.41,0,0,1-2.31.7H76a3.41,3.41,0,0,1-2.31-.7,2.84,2.84,0,0,1-.81-2.26Z" transform="translate(-9.16 -19.73)"/><path class="cls-1" d="M108.26,155.79a24.1,24.1,0,0,1,1.24-8.33,14.26,14.26,0,0,1,3.3-5.35,11.68,11.68,0,0,1,4.72-2.83,18.66,18.66,0,0,1,5.53-.83,17.47,17.47,0,0,1,6.28,1c1.35.41,2,1.18,2,2.28a3.46,3.46,0,0,1-.11.76c-.07.29-.19.7-.36,1.22a3.3,3.3,0,0,1-.83,1.5,2.29,2.29,0,0,1-1.56.47,3.5,3.5,0,0,1-.54-.05,3,3,0,0,1-.55-.16,12,12,0,0,0-4-.73,9.41,9.41,0,0,0-3.19.5,4.75,4.75,0,0,0-2.29,1.74,8.69,8.69,0,0,0-1.34,3.37,26.82,26.82,0,0,0-.45,5.4,26.49,26.49,0,0,0,.45,5.35,8.92,8.92,0,0,0,1.32,3.37,4.75,4.75,0,0,0,2.26,1.76,8.89,8.89,0,0,0,3.19.52,12.37,12.37,0,0,0,2.7-.26,13.93,13.93,0,0,0,2.33-.72,3.33,3.33,0,0,1,.73-.21,4.44,4.44,0,0,1,.62,0,1.72,1.72,0,0,1,1.3.47,3.63,3.63,0,0,1,.78,1.29l.21.57c.1.32.17.57.21.76a3.81,3.81,0,0,1,.05.59,1.87,1.87,0,0,1-.55,1.35,4.5,4.5,0,0,1-1.53,1,16,16,0,0,1-3.32,1.14,16.8,16.8,0,0,1-3.79.42,21.25,21.25,0,0,1-5.92-.78,10.77,10.77,0,0,1-4.67-2.75,13.41,13.41,0,0,1-3.09-5.32,27.44,27.44,0,0,1-1.11-8.49" transform="translate(-9.16 -19.73)"/><path class="cls-1" d="M145,145.93a.51.51,0,0,0-.58-.58h-5.5c-1.73,0-2.59-1-2.59-2.9v-.73c0-1.8.86-2.7,2.59-2.7h19.88c1.73,0,2.6,1,2.6,2.91v.72c0,1.8-.87,2.7-2.6,2.7h-5.65a.51.51,0,0,0-.58.58v23.51q0,3.23-3.37,3.22h-.88c-2.22,0-3.32-1.07-3.32-3.22Z" transform="translate(-9.16 -19.73)"/><path class="cls-1" d="M177,173.13a18.13,18.13,0,0,1-5.58-.83,10.63,10.63,0,0,1-4.47-2.81,13.43,13.43,0,0,1-3-5.32,28,28,0,0,1-1.06-8.38,25.49,25.49,0,0,1,1.14-8.2,14.22,14.22,0,0,1,3.09-5.35,11.32,11.32,0,0,1,4.49-2.91,16.14,16.14,0,0,1,5.35-.88,18.4,18.4,0,0,1,5.6.83,10.71,10.71,0,0,1,4.49,2.8,13.5,13.5,0,0,1,3,5.32,28.12,28.12,0,0,1,1.07,8.39,24.89,24.89,0,0,1-1.17,8.2,14.61,14.61,0,0,1-3.12,5.35,11.19,11.19,0,0,1-4.49,2.9,16.13,16.13,0,0,1-5.34.89m0-6.23a8.19,8.19,0,0,0,2.8-.44,4,4,0,0,0,2-1.64,8.83,8.83,0,0,0,1.14-3.37,35.89,35.89,0,0,0,.37-5.66,33.25,33.25,0,0,0-.39-5.66,9.15,9.15,0,0,0-1.17-3.37,4,4,0,0,0-2-1.64,9.06,9.06,0,0,0-5.58,0,3.83,3.83,0,0,0-1.92,1.64,9,9,0,0,0-1.12,3.37,36,36,0,0,0-.36,5.66,34.56,34.56,0,0,0,.38,5.66,9.34,9.34,0,0,0,1.17,3.37,4,4,0,0,0,1.95,1.64,7.81,7.81,0,0,0,2.73.44" transform="translate(-9.16 -19.73)"/><path class="cls-1" d="M199.67,141.88a2.68,2.68,0,0,1,2.85-2.86h9.14q5.86,0,8.7,2.75t2.82,8.1q0,6.6-4.72,9.19a1,1,0,0,1-.21.16c-.07,0-.1.1-.1.2a1.31,1.31,0,0,0,.15.42l5.87,9.65a2.48,2.48,0,0,1,.42,1.3,1.8,1.8,0,0,1-.55,1.32,2.19,2.19,0,0,1-1.63.55h-2.76a3.12,3.12,0,0,1-2.12-.67,6.6,6.6,0,0,1-1.41-1.82l-5-9a.82.82,0,0,0-.78-.47l-.52,0-.52,0h-1.5a.5.5,0,0,0-.57.57v8.15q0,3.23-3.38,3.22H203q-3.37,0-3.37-3.22ZM210,154.49a12.78,12.78,0,0,0,2.28-.18,4.21,4.21,0,0,0,1.69-.68,3,3,0,0,0,1.07-1.4,6.47,6.47,0,0,0,.36-2.36,6.36,6.36,0,0,0-.36-2.31,3.32,3.32,0,0,0-1.07-1.43,4.09,4.09,0,0,0-1.69-.7,12.78,12.78,0,0,0-2.28-.18h-2.23a.5.5,0,0,0-.57.57v8.1a.5.5,0,0,0,.57.57Z" transform="translate(-9.16 -19.73)"/><path class="cls-1" d="M231.33,142.14q0-3.22,3.38-3.22h.88q3.38,0,3.37,3.22v17.23a18.44,18.44,0,0,0,.32,3.79,5.2,5.2,0,0,0,1,2.26,3.21,3.21,0,0,0,1.68,1.09,9.82,9.82,0,0,0,2.55.28,9.49,9.49,0,0,0,2.49-.28,3.15,3.15,0,0,0,1.69-1.12,5.34,5.34,0,0,0,.93-2.28,20.32,20.32,0,0,0,.29-3.79V142.14q0-3.22,3.37-3.22h.88q3.38,0,3.38,3.22v18a17,17,0,0,1-1,6.41,10.05,10.05,0,0,1-2.83,4,10.24,10.24,0,0,1-4.15,2.05,21.36,21.36,0,0,1-5,.57,26,26,0,0,1-5.22-.5,9.7,9.7,0,0,1-4.18-1.89,9.11,9.11,0,0,1-2.75-4,18.4,18.4,0,0,1-1-6.59Z" transform="translate(-9.16 -19.73)"/><path class="cls-1" d="M267.31,142.08a3.19,3.19,0,0,1,.8-2.33,2.91,2.91,0,0,1,2.21-.83H275a3.94,3.94,0,0,1,2,.54,3.59,3.59,0,0,1,1.46,1.9l6.07,16c.11.24.21.36.31.36s.24-.12.31-.36l6.18-16.09a3.25,3.25,0,0,1,1.38-1.77,3.9,3.9,0,0,1,2-.52h4.41a2.78,2.78,0,0,1,2.1.78A3,3,0,0,1,302,142V169.6q0,3.06-3.16,3.06H298q-3.23,0-3.22-3.06v-20c0-.21,0-.31-.16-.31s-.19.1-.26.31l-6.54,16.56a2.75,2.75,0,0,1-.78,1.19,2,2,0,0,1-1.4.47h-1.87a2.38,2.38,0,0,1-2.33-1.71l-6.54-16.51c-.11-.21-.19-.31-.26-.31s-.16.1-.16.31v20c0,2-1.05,3.06-3.17,3.06h-.83q-3.17,0-3.16-3.06Z" transform="translate(-9.16 -19.73)"/></svg>