<svg id="Layer_1" data-name="Layer 1" xmlns="http://www.w3.org/2000/svg" viewBox="0 0 337.47 278.04"><defs><style>.cls-1{fill:#12100b;}</style></defs><path class="cls-1" d="M61.38,241.87h-14v57H37.79v-57H17.55v-7.08H53.3c6.18,0,13.71-.36,15.43-.73l.27.46c-.36,4.81-2.9,7.35-7.62,7.35" transform="translate(-17.55 -22.26)"/><path class="cls-1" d="M72.36,259.2,71.27,252a49.14,49.14,0,0,1,13.52-2.09c11.62,0,18.42,5,18.42,17v22.51c0,2.81,1,4.35,3.36,4.35a4.67,4.67,0,0,0,2-.45l.36.36c-.18,3.36-2.91,5.9-6.72,5.9-5.17,0-7.17-3.81-7.53-7.62h-.27c-4.36,4.72-8.62,8.35-14.88,8.35-7.72,0-12.34-5.72-12.34-13.16,0-8.26,5.53-14.52,19.32-14.52a75.57,75.57,0,0,1,7.81.45V267c0-7-3.63-10.16-10.53-10.16a27,27,0,0,0-11.43,2.36m22,19.51a43.83,43.83,0,0,0-7.35-.54c-8.53,0-11.25,3.35-11.25,7.8,0,3.63,2.17,6.9,6.62,6.9,4.72,0,8.17-3.09,12-7Z" transform="translate(-17.55 -22.26)"/><path class="cls-1" d="M144.14,292.32a7.1,7.1,0,0,1,.18,1.45c0,5.08-6.35,6.54-10.17,6.54-10.25,0-14.51-5.9-14.51-16.52V257.2h-5.9l-.27-.54c.36-2.27,2-4.27,6-7.08l8.35-5.9h.64v7.08h14v6.44H128.53v28.41c0,5.44,3,8.44,8.53,8.44a10.85,10.85,0,0,0,6.71-2Z" transform="translate(-17.55 -22.26)"/><path class="cls-1" d="M178.8,292.32a7.1,7.1,0,0,1,.18,1.45c0,5.08-6.35,6.54-10.16,6.54-10.26,0-14.52-5.9-14.52-16.52V257.2h-5.9l-.27-.54c.36-2.27,2-4.27,6-7.08l8.34-5.9h.64v7.08h14v6.44H163.19v28.41c0,5.44,3,8.44,8.53,8.44a10.9,10.9,0,0,0,6.72-2Z" transform="translate(-17.55 -22.26)"/><path class="cls-1" d="M199.94,300.31a25.17,25.17,0,0,1-6.35-.91l-9.44-48.64h9.26L201,292.87a13.71,13.71,0,0,0,1.91.18c8.8,0,13-14.7,13-25.68,0-4.9-1.45-11-5.08-11a3.61,3.61,0,0,0-1.91.54l-.36-.27a5.4,5.4,0,0,1-.18-1.27,5.17,5.17,0,0,1,5.44-5.36c6.72,0,9.62,7.26,9.62,14.52,0,14.7-5.9,35.76-23.5,35.76" transform="translate(-17.55 -22.26)"/><path class="cls-1" d="M236.87,259.2,235.78,252a49.14,49.14,0,0,1,13.52-2.09c11.62,0,18.42,5,18.42,17v22.51c0,2.81,1,4.35,3.36,4.35a4.67,4.67,0,0,0,2-.45l.36.36c-.18,3.36-2.9,5.9-6.71,5.9-5.18,0-7.17-3.81-7.54-7.62h-.27c-4.35,4.72-8.62,8.35-14.88,8.35-7.71,0-12.34-5.72-12.34-13.16,0-8.26,5.53-14.52,19.33-14.52a75.54,75.54,0,0,1,7.8.45V267c0-7-3.63-10.16-10.52-10.16a27,27,0,0,0-11.44,2.36m22,19.51a43.74,43.74,0,0,0-7.35-.54c-8.53,0-11.25,3.35-11.25,7.8,0,3.63,2.18,6.9,6.62,6.9,4.72,0,8.17-3.09,12-7Z" transform="translate(-17.55 -22.26)"/><path class="cls-1" d="M348.12,299.58c-4.9,0-6.89-3.9-6.89-8.71V264.28c0-4.54-2.63-6.62-5.72-6.62-5.72,0-10.62,5.9-14.16,9.71v31.48h-8.8V264.28c0-4.54-2.63-6.62-5.72-6.62-5.71,0-10.61,5.9-14.15,9.71v31.48h-8.8V250.76h8.53v9.62h.27c4.9-5.63,10.52-11.07,18.06-11.07a10.45,10.45,0,0,1,7,2.63c2.45,2.18,3.27,5.26,3.54,8.44h.09c4.9-5.63,10.53-11.07,18.06-11.07a10.49,10.49,0,0,1,7,2.63c3.17,2.81,3.63,7.08,3.63,11.16V290c0,2,.72,3.81,2.81,3.81a3.89,3.89,0,0,0,1.82-.45l.36.36c-.18,3.36-3.09,5.9-6.9,5.9" transform="translate(-17.55 -22.26)"/><path class="cls-1" d="M182.4,72.73A25.24,25.24,0,1,0,157.17,47.5,25.24,25.24,0,0,0,182.4,72.73" transform="translate(-17.55 -22.26)"/><path class="cls-1" d="M143.59,131a25.08,25.08,0,0,0,13.75-4.09c22.37-12.78,39.44-4.39,44.71-1.08a25.24,25.24,0,1,0-2.28-38.16c-16.55,11.88-29.81,6.7-36.92,1.81A25.23,25.23,0,1,0,143.59,131" transform="translate(-17.55 -22.26)"/><path class="cls-1" d="M260,142.61a25.14,25.14,0,0,0-17.57,7.13c-16.55,11.88-29.81,6.7-36.91,1.82a25.23,25.23,0,0,0-36.85-1.82c-16.55,11.88-29.81,6.71-36.91,1.82A25.23,25.23,0,1,0,126.29,189c22.37-12.78,39.44-4.39,44.7-1.08A25.22,25.22,0,0,0,200,189c22.38-12.79,39.45-4.4,44.71-1.09A25.23,25.23,0,1,0,260,142.61" transform="translate(-17.55 -22.26)"/></svg>